<svg width="503" height="239" viewBox="0 0 503 239" fill="none" xmlns="http://www.w3.org/2000/svg">
    <path opacity="0.1" d="M1.49999 251.5C1.49998 389.571 113.429 501.5 251.5 501.5C389.571 501.5 501.5 389.571 501.5 251.5M1.49999 251.5C1.5 113.429 113.429 1.49998 251.5 1.49999C389.571 1.5 501.5 113.429 501.5 251.5M1.49999 251.5C1.49999 320.536 57.4646 376.5 126.5 376.5C195.536 376.5 251.5 320.536 251.5 251.5M1.49999 251.5C1.49999 182.464 57.4646 126.5 126.5 126.5C195.536 126.5 251.5 182.464 251.5 251.5M501.5 251.5C501.5 182.464 445.536 126.5 376.5 126.5C307.465 126.5 251.5 182.464 251.5 251.5M501.5 251.5C501.5 320.536 445.536 376.5 376.5 376.5C307.465 376.5 251.5 320.536 251.5 251.5" stroke="white" stroke-width="3" stroke-linejoin="round"/>
    <path opacity="0.25" d="M251.5 251.5C251.5 320.536 307.465 376.5 376.5 376.5C445.536 376.5 501.5 320.536 501.5 251.5C501.5 182.464 445.536 126.5 376.5 126.5C307.465 126.5 251.5 182.464 251.5 251.5ZM251.5 251.5C251.5 182.464 195.536 126.5 126.5 126.5C57.4647 126.5 1.5 182.464 1.49999 251.5C1.49999 320.536 57.4646 376.5 126.5 376.5C195.536 376.5 251.5 320.536 251.5 251.5Z" stroke="white" stroke-width="2" stroke-linejoin="round"/>
</svg>
