<svg width="50" height="50" viewBox="0 0 50 50" fill="none" xmlns="http://www.w3.org/2000/svg">
<rect x="0.5" y="0.5" width="49" height="49" rx="24.5" stroke="white" stroke-opacity="0.2"/>
<path fill-rule="evenodd" clip-rule="evenodd" d="M25 41C16.1634 41 9 33.8366 9 25C9 16.1634 16.1634 9 25 9C33.8366 9 41 16.1634 41 25C41 33.8366 33.8366 41 25 41ZM25.5009 18.278L25.5009 18.778L25.5009 30.0154L29.0927 26.4236L29.4463 26.07L30.1534 26.7771L29.7998 27.1307L25.3545 31.576L25.0009 31.9296L24.6474 31.576L20.2021 27.1307L19.8485 26.7771L20.5556 26.07L20.9092 26.4236L24.5009 30.0153L24.5009 18.778L24.5009 18.278L25.5009 18.278Z" fill="white"/>
</svg>
