<svg width="20" height="20" fill="none" xmlns="http://www.w3.org/2000/svg"><rect width="20" height="20" rx="4" fill="#fff"/><path d="M9.309 10.691A7.632 7.632 0 017.715 8.39a.452.452 0 01.1-.5l.495-.494c.406-.405.406-.979.052-1.333l-.71-.71a1.208 1.208 0 00-1.708 0l-.394.395a1.93 1.93 0 00-.514 1.734c.298 1.579 1.216 3.307 2.695 4.787 1.48 1.48 3.209 2.397 4.788 2.695a1.93 1.93 0 001.734-.514l.393-.393a1.208 1.208 0 000-1.709l-.709-.708a.906.906 0 00-1.281 0l-.546.546a.452.452 0 01-.5.1 7.65 7.65 0 01-2.301-1.595z" fill="#000"/></svg>