<svg xmlns="http://www.w3.org/2000/svg" width="18" height="18" viewBox="0 0 18 18" fill="none">
<path d="M12.3325 7.33341H13.9992C13.9982 6.44965 13.6468 5.60234 13.0219 4.97741C12.397 4.3525 11.5496 4.00101 10.6659 4.00008V5.66675C11.1077 5.66726 11.5314 5.84301 11.8438 6.15546C12.1562 6.46791 12.332 6.89154 12.3325 7.33341ZM15.6659 7.33341H17.3325C17.3305 5.56593 16.6275 3.87141 15.3776 2.62161C14.1279 1.37181 12.4333 0.668773 10.6659 0.666748V2.33341C11.9915 2.33487 13.2624 2.86212 14.1998 3.79949C15.1371 4.73686 15.6644 6.00778 15.6659 7.33341ZM11.0626 13.2697C9.6557 12.6587 8.37229 11.7959 7.27542 10.7238C6.20334 9.62691 5.34057 8.3435 4.72959 6.93666L6.71717 4.94908L4.64217 0.799081L3.3055 1.22666C2.42688 1.49828 1.68047 2.08656 1.21106 2.87738C0.741655 3.66821 0.582721 4.6052 0.765088 5.50658C1.3954 8.37708 2.83698 11.0061 4.91834 13.0809C6.99317 15.1622 9.6222 16.6038 12.4927 17.2342C13.394 17.4165 14.331 17.2576 15.1219 16.7882C15.9126 16.3187 16.5009 15.5722 16.7725 14.6937L17.2001 13.357L13.0501 11.282L11.0626 13.2697Z" fill="#000000"/>
</svg>