<svg width="50" height="50" viewBox="0 0 50 50" fill="none" xmlns="http://www.w3.org/2000/svg">
<rect x="0.5" y="0.5" width="49" height="49" rx="24.5" stroke="#242D3E"/>
<path fill-rule="evenodd" clip-rule="evenodd" d="M25 9C33.8366 9 41 16.1634 41 25C41 33.8366 33.8366 41 25 41C16.1634 41 9 33.8366 9 25C9 16.1634 16.1634 9 25 9ZM24.4991 31.722V31.222L24.4991 19.9846L20.9073 23.5764L20.5537 23.93L19.8466 23.2229L20.2002 22.8693L24.6455 18.424L24.9991 18.0704L25.3526 18.424L29.798 22.8693L30.1515 23.2229L29.4444 23.93L29.0908 23.5764L25.4991 19.9847L25.4991 31.222V31.722H24.4991Z" fill="white"/>
</svg>
