<svg version="1.2" xmlns="http://www.w3.org/2000/svg" viewBox="0 0 192 192" width="192" height="192">
	<title>Логотип (2)-svg</title>
	<style>
		.s0 { fill: #000000 } 
	</style>
	<path id="Layer" fill-rule="evenodd" class="s0" d="m94.1 19.7h1.7 0.1 1.7c25.6 0.3 48.8 8.7 65.7 22.1 17.4 13.6 28.4 32.8 28.4 54.2 0 21.4-11 40.6-28.4 54.2-17.3 13.7-41.2 22.1-67.4 22.1h-0.1c-26.2 0-50.1-8.4-67.4-22.1-17.4-13.6-28.4-32.8-28.4-54.2 0-21.4 11-40.6 28.4-54.2 16.9-13.4 40.1-21.8 65.7-22.1zm-80.1 109.8h19.5c-4.5-10.1-7-21.5-7-33.5 0-12.4 2.7-24.1 7.5-34.5h-19.3c-7.2 10.3-11.3 22.1-11.3 34.5 0 12 3.8 23.4 10.6 33.5zm16.2 17.2c9.4 7.4 20.8 13.3 33.5 17-11.8-6.8-21.6-17.3-28.2-30h-18.5c3.8 4.7 8.2 9.1 13.2 13zm28.4-13h-19c8.6 15.3 22.3 26.8 38.5 31.8-8.3-6.7-15.1-18-19.5-31.8zm35.5 0h-31.8c6.7 20.1 18.6 33.3 31.8 34.4zm35.3 0h-31.8v34.4c13.2-1 25.1-14.2 31.8-34.4zm22.7 0h-19c-4.4 13.8-11.2 25.1-19.5 31.8 16.2-4.9 29.9-16.5 38.5-31.8zm-114.6-4.2h116.7c4.8-10 7.5-21.4 7.5-33.5 0-12.4-2.9-24.2-8-34.5h-115.7c-5.1 10.3-8 22.1-8 34.5 0 12.1 2.7 23.5 7.5 33.5zm124 17.3c5-4 9.4-8.4 13.2-13.1h-18.5c-6.6 12.7-16.4 23.2-28.2 30 12.7-3.7 24.1-9.5 33.5-16.9zm-3.3-17.3h19.5c6.8-10.1 10.6-21.5 10.6-33.5 0-12.4-4.1-24.1-11.3-34.5h-19.3c4.8 10.4 7.5 22.1 7.5 34.5 0 12.1-2.5 23.4-7 33.5zm-2.6-72.1h18.2c-3.5-4.4-7.7-8.4-12.3-12.1-9.4-7.4-20.8-13.2-33.5-16.9 11.4 6.6 21.1 16.7 27.6 29zm-22.8 0h18.7c-8.6-14.8-22-26-37.9-30.8 8.1 6.5 14.8 17.4 19.2 30.8zm-35.2 0h31.5c-6.9-19.6-18.5-32.4-31.5-33.4zm-35 0h31.5v-33.4c-13 1-24.6 13.8-31.5 33.4zm-32.4-12.1c-4.6 3.7-8.8 7.7-12.3 12.1h18.2c6.5-12.3 16.2-22.4 27.6-29-12.7 3.7-24.1 9.5-33.5 16.9zm10 12.1h18.7c4.4-13.3 11.1-24.3 19.2-30.8-15.9 4.8-29.3 16-37.9 30.8zm39.5 11.3l-1.8 11.1 7-11.1h31.7l-2.2 12.8 9-12.8h17.7l-8.8 53.7h-19.3l2.2-12.7-9 12.7h-29.2l-3.8-13.8-2.3 13.8h-19.4l8.7-53.7zm13 49.5l-7.1-22.9 14.4-21.7-7.3 44.6h12l16.6-23.5-4.1 23.5h12.3l7.4-45.3h-11.9l-16.6 23.5 4-23.5h-25.8l-10.6 16.9h-3.2l2.8-16.9h-12.5l-7.5 45.3h12.5l2.7-16.4h4.1l4.5 16.4zm-3.2-22.2l2.2 7.1 2.3-13.8z"/>
</svg>