<svg version="1.2" xmlns="http://www.w3.org/2000/svg" viewBox="0 0 512 512" width="512" height="512">
	<title>Логотип (2)-svg</title>
	<style>
		.s0 { fill: #000000 } 
	</style>
	<path id="Layer" fill-rule="evenodd" class="s0" d="m251 52.5h4.6 4.6c68.2 1 130.1 23.2 175.4 58.8 46.2 36.5 75.6 87.5 75.6 144.7 0 57.2-29.4 108.2-75.6 144.7-46.3 36.4-109.9 58.8-180 58.8-70.1 0-133.7-22.4-180-58.8-46.2-36.5-75.6-87.5-75.6-144.7 0-57.2 29.4-108.2 75.6-144.7 45.3-35.6 107.2-57.8 175.4-58.8zm-213.7 292.7h52.1c-11.9-26.8-18.7-57.1-18.7-89.2 0-33.1 7.2-64.4 19.9-92h-51.4c-19.3 27.6-30.1 59-30.1 92 0 32 10.1 62.4 28.2 89.2zm43.3 46.1c25 19.7 55.4 35.3 89.4 45.1-31.5-18.1-57.7-46-75.3-80h-49.3c10 12.6 21.8 24.4 35.2 34.9zm75.7-34.9h-50.6c22.8 40.9 59.3 71.7 102.5 84.9-22.1-18-40.3-48.1-51.9-84.9zm94.7 0h-84.9c18 53.8 49.6 89 84.9 91.8zm94.1 0h-84.9v91.9c35.3-2.9 66.9-38.1 84.9-91.9zm60.4 0h-50.6c-11.6 36.8-29.8 67-51.9 85 43.2-13.2 79.7-44.1 102.5-85zm-305.6-11.1h311.4c12.8-26.7 20-57.1 20-89.2 0-33.3-7.7-64.7-21.4-92h-308.6c-13.7 27.3-21.4 58.7-21.4 92 0 32.1 7.2 62.5 20 89.2zm330.7 46c13.4-10.5 25.2-22.2 35.2-34.9h-49.3c-17.6 34.1-43.8 61.9-75.3 80.1 34-9.9 64.4-25.4 89.4-45.2zm-8.8-46h52.1c18.1-26.9 28.2-57.3 28.2-89.2 0-33.1-10.8-64.5-30.1-92h-51.4c12.7 27.5 19.9 58.8 19.9 92 0 32-6.8 62.3-18.7 89.2zm-6.8-192.4h48.5c-9.4-11.6-20.5-22.3-32.9-32.1-25-19.7-55.4-35.3-89.4-45.2 30.6 17.7 56.3 44.5 73.8 77.3zm-61 0h49.9c-22.9-39.5-58.6-69.2-100.9-82.2 21.6 17.6 39.3 46.7 51 82.2zm-93.8 0h84c-18.2-52.2-49.3-86.3-84-89zm-93.2 0h84v-89.1c-34.7 2.8-65.8 36.8-84 89.1zm-86.4-32.2c-12.4 9.8-23.5 20.6-32.9 32.2h48.5c17.5-32.8 43.1-59.6 73.8-77.3-34 9.9-64.4 25.4-89.4 45.1zm26.7 32.2h49.9c11.7-35.6 29.4-64.6 51-82.2-42.3 12.9-78 42.7-100.9 82.2zm105.3 30.2l-4.8 29.6 18.6-29.6h84.5l-5.7 34 24-34h47.1l-23.5 143.1h-51.5l5.8-33.8-23.8 33.8h-78.1l-10-36.6-6 36.6h-52l23.4-143.1zm34.5 131.9l-18.9-61.1 38.5-57.8-19.5 118.9h31.9l44.3-62.6-10.8 62.6h32.8l19.8-120.8h-31.8l-44.2 62.8 10.6-62.8h-68.9l-28.3 45.1h-8.5l7.4-45.1h-33.3l-19.8 120.8h33.3l7.2-43.6h10.9l12 43.6zm-8.6-59l5.9 18.9 6.1-36.8z"/>
</svg>