<svg width="56" height="42" viewBox="0 0 56 42" fill="none" xmlns="http://www.w3.org/2000/svg">
<g clip-path="url(#clip0_269_4123)">
<path d="M2 0C0.89543 0 0 0.895431 0 2V37.1716C0 38.9534 2.15428 39.8457 3.41421 38.5858L20.4142 21.5858C20.7893 21.2107 21 20.702 21 20.1716V2C21 0.89543 20.1046 0 19 0H2ZM37 0C35.8954 0 35 0.895431 35 2V37.1716C35 38.9534 37.1543 39.8457 38.4142 38.5858L55.4142 21.5858C55.7893 21.2107 56 20.702 56 20.1716V2C56 0.89543 55.1046 0 54 0H37Z" fill="#097990"/>
</g>
<defs>
<clipPath id="clip0_269_4123">
<rect width="56" height="42" fill="white"/>
</clipPath>
</defs>
</svg>
